# xmcd
#
# Track frame offsets:
#	150
#	23305
#	37005
#	59474
#	71850
#	86647
#	99309
#	110599
#	129197
#	140920
#	157238
#
# Disc length: 2267 seconds
#
# Revision: 0
# Processed by: cddbd v1.5.2PL0 Copyright (c) Steve Scherf et al.
# Submitted via: EasyCDDAExtractor 11.9.9.666
#
DISCID=9908d90b
DTITLE=Various Artist - Box Modao Sertanejo - CD - 4
DYEAR=2010
DGENRE=Sertanejo
TTITLE0=João Bosco and Vinícius - Pot-Pourri Pagode Em Brasília - Pagode - Falou
TTITLE0=E Disse - Minissaia - Passa Moreno
TTITLE1=Tato and Ed Reis - Poeira Da Estrada
TTITLE2=Lucas and Luan - Pot-Pourri Olhos De Luar - Merceditas (Merceditas)
TTITLE3=Diogo and Danilo - Dama De Vermelho
TTITLE4=Reginaldo Silva - Som De Cristal
TTITLE5=Álvaro and Daniel - Só Mais Uma Vez
TTITLE6=Marcelinho De Lima and Camargo - Mala Amarela
TTITLE7=Henrique and Juliano - Rei Da Festa 
TTITLE8=Ao Vivo – Diego and Diogo - Bem Aos Olhos Da Lua 
TTITLE9=Mateus and Cristiano - Fome De Amor 
TTITLE10=Tiago and Juvenal - Vide, Vida Marvada 
EXTD=
EXTT0=
EXTT1=
EXTT2=
EXTT3=
EXTT4=
EXTT5=
EXTT6=
EXTT7=
EXTT8=
EXTT9=
EXTT10=
PLAYORDER=
